<?xml version="1.0" encoding="UTF-8" standalone="no"?>
<!DOCTYPE svg PUBLIC "-//W3C//DTD SVG 1.1//EN"
 "http://www.w3.org/Graphics/SVG/1.1/DTD/svg11.dtd">
<!-- Generated by graphviz version 2.47.3 (20210619.1520)
 -->
<!-- Title: dependencies Pages: 1 -->
<svg width="286pt" height="247pt"
 viewBox="0.00 0.00 286.00 246.80" xmlns="http://www.w3.org/2000/svg" xmlns:xlink="http://www.w3.org/1999/xlink">
<g id="graph0" class="graph" transform="scale(1 1) rotate(0) translate(4 242.8)">
<title>dependencies</title>
<polygon fill="white" stroke="transparent" points="-4,4 -4,-242.8 282,-242.8 282,4 -4,4"/>
<text text-anchor="middle" x="139" y="-8.2" font-family="sans-serif" font-size="14.00">dependencies</text>
<g id="clust1" class="cluster">
<title>cluster_SharedModule</title>
<polygon fill="none" stroke="black" stroke-dasharray="1,5" points="8,-32.8 8,-230.8 270,-230.8 270,-32.8 8,-32.8"/>
</g>
<g id="clust4" class="cluster">
<title>cluster_SharedModule_imports</title>
<polygon fill="none" stroke="black" points="139,-40.8 139,-92.8 261,-92.8 261,-40.8 139,-40.8"/>
</g>
<g id="clust2" class="cluster">
<title>cluster_SharedModule_declarations</title>
<polygon fill="none" stroke="black" points="17,-40.8 17,-92.8 131,-92.8 131,-40.8 17,-40.8"/>
</g>
<g id="clust5" class="cluster">
<title>cluster_SharedModule_exports</title>
<polygon fill="none" stroke="black" points="16,-170.8 16,-222.8 262,-222.8 262,-170.8 16,-170.8"/>
</g>
<!-- StateCodePipe -->
<g id="node1" class="node">
<title>StateCodePipe</title>
<polygon fill="#ffffb3" stroke="black" points="123.43,-84.8 24.57,-84.8 24.57,-48.8 123.43,-48.8 123.43,-84.8"/>
<text text-anchor="middle" x="74" y="-62.6" font-family="Times,serif" font-size="14.00">StateCodePipe</text>
</g>
<!-- SharedModule -->
<g id="node2" class="node">
<title>SharedModule</title>
<polygon fill="#8dd3c7" stroke="black" points="186.42,-149.8 183.42,-153.8 162.42,-153.8 159.42,-149.8 87.58,-149.8 87.58,-113.8 186.42,-113.8 186.42,-149.8"/>
<text text-anchor="middle" x="137" y="-127.6" font-family="Times,serif" font-size="14.00">SharedModule</text>
</g>
<!-- StateCodePipe&#45;&gt;SharedModule -->
<g id="edge1" class="edge">
<title>StateCodePipe&#45;&gt;SharedModule</title>
<path fill="none" stroke="black" d="M105.5,-84.91C105.5,-84.91 105.5,-103.79 105.5,-103.79"/>
<polygon fill="black" stroke="black" points="102,-103.79 105.5,-113.79 109,-103.79 102,-103.79"/>
</g>
<!-- MaterialModule  -->
<g id="node4" class="node">
<title>MaterialModule </title>
<polygon fill="#fb8072" stroke="black" points="254.47,-214.8 143.53,-214.8 143.53,-178.8 254.47,-178.8 254.47,-214.8"/>
<text text-anchor="middle" x="199" y="-192.6" font-family="Times,serif" font-size="14.00">MaterialModule </text>
</g>
<!-- SharedModule&#45;&gt;MaterialModule  -->
<g id="edge3" class="edge">
<title>SharedModule&#45;&gt;MaterialModule </title>
<path fill="none" stroke="black" stroke-dasharray="5,2" d="M164.99,-149.91C164.99,-149.91 164.99,-168.79 164.99,-168.79"/>
<polygon fill="black" stroke="black" points="161.49,-168.79 164.99,-178.79 168.49,-168.79 161.49,-168.79"/>
</g>
<!-- StateCodePipe  -->
<g id="node5" class="node">
<title>StateCodePipe </title>
<polygon fill="#fb8072" stroke="black" points="125.93,-214.8 24.07,-214.8 24.07,-178.8 125.93,-178.8 125.93,-214.8"/>
<text text-anchor="middle" x="75" y="-192.6" font-family="Times,serif" font-size="14.00">StateCodePipe </text>
</g>
<!-- SharedModule&#45;&gt;StateCodePipe  -->
<g id="edge4" class="edge">
<title>SharedModule&#45;&gt;StateCodePipe </title>
<path fill="none" stroke="black" stroke-dasharray="5,2" d="M106.88,-149.91C106.88,-149.91 106.88,-168.79 106.88,-168.79"/>
<polygon fill="black" stroke="black" points="103.38,-168.79 106.88,-178.79 110.38,-168.79 103.38,-168.79"/>
</g>
<!-- MaterialModule -->
<g id="node3" class="node">
<title>MaterialModule</title>
<polygon fill="#8dd3c7" stroke="black" points="253.47,-84.8 250.47,-88.8 229.47,-88.8 226.47,-84.8 146.53,-84.8 146.53,-48.8 253.47,-48.8 253.47,-84.8"/>
<text text-anchor="middle" x="200" y="-62.6" font-family="Times,serif" font-size="14.00">MaterialModule</text>
</g>
<!-- MaterialModule&#45;&gt;SharedModule -->
<g id="edge2" class="edge">
<title>MaterialModule&#45;&gt;SharedModule</title>
<path fill="none" stroke="black" d="M166.36,-84.91C166.36,-84.91 166.36,-103.79 166.36,-103.79"/>
<polygon fill="black" stroke="black" points="162.86,-103.79 166.36,-113.79 169.86,-103.79 162.86,-103.79"/>
</g>
</g>
</svg>
