<?xml version="1.0" encoding="UTF-8" standalone="no"?>
<!DOCTYPE svg PUBLIC "-//W3C//DTD SVG 1.1//EN"
 "http://www.w3.org/Graphics/SVG/1.1/DTD/svg11.dtd">
<!-- Generated by graphviz version 2.47.3 (20210619.1520)
 -->
<!-- Title: dependencies Pages: 1 -->
<svg width="580pt" height="174pt"
 viewBox="0.00 0.00 580.00 173.80" xmlns="http://www.w3.org/2000/svg" xmlns:xlink="http://www.w3.org/1999/xlink">
<g id="graph0" class="graph" transform="scale(1 1) rotate(0) translate(4 169.8)">
<title>dependencies</title>
<polygon fill="white" stroke="transparent" points="-4,4 -4,-169.8 576,-169.8 576,4 -4,4"/>
<text text-anchor="middle" x="286" y="-8.2" font-family="sans-serif" font-size="14.00">dependencies</text>
<g id="clust1" class="cluster">
<title>cluster_FormViewModule</title>
<polygon fill="none" stroke="black" stroke-dasharray="1,5" points="8,-32.8 8,-157.8 564,-157.8 564,-32.8 8,-32.8"/>
</g>
<g id="clust5" class="cluster">
<title>cluster_FormViewModule_imports</title>
<polygon fill="none" stroke="black" points="374,-40.8 374,-92.8 556,-92.8 556,-40.8 374,-40.8"/>
</g>
<g id="clust2" class="cluster">
<title>cluster_FormViewModule_declarations</title>
<polygon fill="none" stroke="black" points="16,-40.8 16,-92.8 366,-92.8 366,-40.8 16,-40.8"/>
</g>
<!-- FormViewChildComponent -->
<g id="node1" class="node">
<title>FormViewChildComponent</title>
<polygon fill="#ffffb3" stroke="black" points="357.6,-84.8 184.4,-84.8 184.4,-48.8 357.6,-48.8 357.6,-84.8"/>
<text text-anchor="middle" x="271" y="-62.6" font-family="Times,serif" font-size="14.00">FormViewChildComponent</text>
</g>
<!-- FormViewModule -->
<g id="node3" class="node">
<title>FormViewModule</title>
<polygon fill="#8dd3c7" stroke="black" points="331.2,-149.8 328.2,-153.8 307.2,-153.8 304.2,-149.8 210.8,-149.8 210.8,-113.8 331.2,-113.8 331.2,-149.8"/>
<text text-anchor="middle" x="271" y="-127.6" font-family="Times,serif" font-size="14.00">FormViewModule</text>
</g>
<!-- FormViewChildComponent&#45;&gt;FormViewModule -->
<g id="edge1" class="edge">
<title>FormViewChildComponent&#45;&gt;FormViewModule</title>
<path fill="none" stroke="black" d="M271,-84.91C271,-84.91 271,-103.79 271,-103.79"/>
<polygon fill="black" stroke="black" points="267.5,-103.79 271,-113.79 274.5,-103.79 267.5,-103.79"/>
</g>
<!-- FormViewComponent -->
<g id="node2" class="node">
<title>FormViewComponent</title>
<polygon fill="#ffffb3" stroke="black" points="165.98,-84.8 24.02,-84.8 24.02,-48.8 165.98,-48.8 165.98,-84.8"/>
<text text-anchor="middle" x="95" y="-62.6" font-family="Times,serif" font-size="14.00">FormViewComponent</text>
</g>
<!-- FormViewComponent&#45;&gt;FormViewModule -->
<g id="edge2" class="edge">
<title>FormViewComponent&#45;&gt;FormViewModule</title>
<path fill="none" stroke="black" d="M95,-84.91C95,-104.14 95,-131.8 95,-131.8 95,-131.8 200.43,-131.8 200.43,-131.8"/>
<polygon fill="black" stroke="black" points="200.43,-135.3 210.43,-131.8 200.43,-128.3 200.43,-135.3"/>
</g>
<!-- FormViewRoutingModule -->
<g id="node4" class="node">
<title>FormViewRoutingModule</title>
<polygon fill="#8dd3c7" stroke="black" points="547.82,-84.8 544.82,-88.8 523.82,-88.8 520.82,-84.8 382.18,-84.8 382.18,-48.8 547.82,-48.8 547.82,-84.8"/>
<text text-anchor="middle" x="465" y="-62.6" font-family="Times,serif" font-size="14.00">FormViewRoutingModule</text>
</g>
<!-- FormViewRoutingModule&#45;&gt;FormViewModule -->
<g id="edge3" class="edge">
<title>FormViewRoutingModule&#45;&gt;FormViewModule</title>
<path fill="none" stroke="black" d="M465,-84.91C465,-104.14 465,-131.8 465,-131.8 465,-131.8 341.32,-131.8 341.32,-131.8"/>
<polygon fill="black" stroke="black" points="341.32,-128.3 331.32,-131.8 341.32,-135.3 341.32,-128.3"/>
</g>
</g>
</svg>
