<?xml version="1.0" encoding="UTF-8" standalone="no"?>
<!DOCTYPE svg PUBLIC "-//W3C//DTD SVG 1.1//EN"
 "http://www.w3.org/Graphics/SVG/1.1/DTD/svg11.dtd">
<!-- Generated by graphviz version 2.47.3 (20210619.1520)
 -->
<!-- Title: dependencies Pages: 1 -->
<svg width="370pt" height="174pt"
 viewBox="0.00 0.00 370.00 173.80" xmlns="http://www.w3.org/2000/svg" xmlns:xlink="http://www.w3.org/1999/xlink">
<g id="graph0" class="graph" transform="scale(1 1) rotate(0) translate(4 169.8)">
<title>dependencies</title>
<polygon fill="white" stroke="transparent" points="-4,4 -4,-169.8 366,-169.8 366,4 -4,4"/>
<text text-anchor="middle" x="181" y="-8.2" font-family="sans-serif" font-size="14.00">dependencies</text>
<g id="clust1" class="cluster">
<title>cluster_FormListModule</title>
<polygon fill="none" stroke="black" stroke-dasharray="1,5" points="8,-32.8 8,-157.8 354,-157.8 354,-32.8 8,-32.8"/>
</g>
<g id="clust2" class="cluster">
<title>cluster_FormListModule_declarations</title>
<polygon fill="none" stroke="black" points="196,-40.8 196,-92.8 346,-92.8 346,-40.8 196,-40.8"/>
</g>
<g id="clust4" class="cluster">
<title>cluster_FormListModule_imports</title>
<polygon fill="none" stroke="black" points="16,-40.8 16,-92.8 188,-92.8 188,-40.8 16,-40.8"/>
</g>
<!-- FormListComponent -->
<g id="node1" class="node">
<title>FormListComponent</title>
<polygon fill="#ffffb3" stroke="black" points="337.95,-84.8 204.05,-84.8 204.05,-48.8 337.95,-48.8 337.95,-84.8"/>
<text text-anchor="middle" x="271" y="-62.6" font-family="Times,serif" font-size="14.00">FormListComponent</text>
</g>
<!-- FormListModule -->
<g id="node2" class="node">
<title>FormListModule</title>
<polygon fill="#8dd3c7" stroke="black" points="241.66,-149.8 238.66,-153.8 217.66,-153.8 214.66,-149.8 130.34,-149.8 130.34,-113.8 241.66,-113.8 241.66,-149.8"/>
<text text-anchor="middle" x="186" y="-127.6" font-family="Times,serif" font-size="14.00">FormListModule</text>
</g>
<!-- FormListComponent&#45;&gt;FormListModule -->
<g id="edge1" class="edge">
<title>FormListComponent&#45;&gt;FormListModule</title>
<path fill="none" stroke="black" d="M223.05,-84.91C223.05,-84.91 223.05,-103.79 223.05,-103.79"/>
<polygon fill="black" stroke="black" points="219.55,-103.79 223.05,-113.79 226.55,-103.79 219.55,-103.79"/>
</g>
<!-- FormListRoutingModule -->
<g id="node3" class="node">
<title>FormListRoutingModule</title>
<polygon fill="#8dd3c7" stroke="black" points="180.28,-84.8 177.28,-88.8 156.28,-88.8 153.28,-84.8 23.72,-84.8 23.72,-48.8 180.28,-48.8 180.28,-84.8"/>
<text text-anchor="middle" x="102" y="-62.6" font-family="Times,serif" font-size="14.00">FormListRoutingModule</text>
</g>
<!-- FormListRoutingModule&#45;&gt;FormListModule -->
<g id="edge2" class="edge">
<title>FormListRoutingModule&#45;&gt;FormListModule</title>
<path fill="none" stroke="black" d="M155.28,-84.91C155.28,-84.91 155.28,-103.79 155.28,-103.79"/>
<polygon fill="black" stroke="black" points="151.78,-103.79 155.28,-113.79 158.78,-103.79 151.78,-103.79"/>
</g>
</g>
</svg>
