<?xml version="1.0" encoding="UTF-8" standalone="no"?>
<!DOCTYPE svg PUBLIC "-//W3C//DTD SVG 1.1//EN"
 "http://www.w3.org/Graphics/SVG/1.1/DTD/svg11.dtd">
<!-- Generated by graphviz version 2.47.3 (20210619.1520)
 -->
<!-- Title: dependencies Pages: 1 -->
<svg width="318pt" height="247pt"
 viewBox="0.00 0.00 318.00 246.80" xmlns="http://www.w3.org/2000/svg" xmlns:xlink="http://www.w3.org/1999/xlink">
<g id="graph0" class="graph" transform="scale(1 1) rotate(0) translate(4 242.8)">
<title>dependencies</title>
<polygon fill="white" stroke="transparent" points="-4,4 -4,-242.8 314,-242.8 314,4 -4,4"/>
<text text-anchor="middle" x="155" y="-8.2" font-family="sans-serif" font-size="14.00">dependencies</text>
<g id="clust1" class="cluster">
<title>cluster_SearchModule</title>
<polygon fill="none" stroke="black" stroke-dasharray="1,5" points="8,-32.8 8,-230.8 302,-230.8 302,-32.8 8,-32.8"/>
</g>
<g id="clust5" class="cluster">
<title>cluster_SearchModule_exports</title>
<polygon fill="none" stroke="black" points="75,-170.8 75,-222.8 235,-222.8 235,-170.8 75,-170.8"/>
</g>
<g id="clust2" class="cluster">
<title>cluster_SearchModule_declarations</title>
<polygon fill="none" stroke="black" points="138,-40.8 138,-92.8 294,-92.8 294,-40.8 138,-40.8"/>
</g>
<g id="clust4" class="cluster">
<title>cluster_SearchModule_imports</title>
<polygon fill="none" stroke="black" points="16,-40.8 16,-92.8 130,-92.8 130,-40.8 16,-40.8"/>
</g>
<!-- SearchBarComponent -->
<g id="node1" class="node">
<title>SearchBarComponent</title>
<polygon fill="#ffffb3" stroke="black" points="285.63,-84.8 146.37,-84.8 146.37,-48.8 285.63,-48.8 285.63,-84.8"/>
<text text-anchor="middle" x="216" y="-62.6" font-family="Times,serif" font-size="14.00">SearchBarComponent</text>
</g>
<!-- SearchModule -->
<g id="node2" class="node">
<title>SearchModule</title>
<polygon fill="#8dd3c7" stroke="black" points="203.64,-149.8 200.64,-153.8 179.64,-153.8 176.64,-149.8 106.36,-149.8 106.36,-113.8 203.64,-113.8 203.64,-149.8"/>
<text text-anchor="middle" x="155" y="-127.6" font-family="Times,serif" font-size="14.00">SearchModule</text>
</g>
<!-- SearchBarComponent&#45;&gt;SearchModule -->
<g id="edge1" class="edge">
<title>SearchBarComponent&#45;&gt;SearchModule</title>
<path fill="none" stroke="black" d="M175,-84.91C175,-84.91 175,-103.79 175,-103.79"/>
<polygon fill="black" stroke="black" points="171.5,-103.79 175,-113.79 178.5,-103.79 171.5,-103.79"/>
</g>
<!-- SearchBarComponent  -->
<g id="node4" class="node">
<title>SearchBarComponent </title>
<polygon fill="#fb8072" stroke="black" points="226.63,-214.8 83.37,-214.8 83.37,-178.8 226.63,-178.8 226.63,-214.8"/>
<text text-anchor="middle" x="155" y="-192.6" font-family="Times,serif" font-size="14.00">SearchBarComponent </text>
</g>
<!-- SearchModule&#45;&gt;SearchBarComponent  -->
<g id="edge3" class="edge">
<title>SearchModule&#45;&gt;SearchBarComponent </title>
<path fill="none" stroke="black" stroke-dasharray="5,2" d="M155,-149.91C155,-149.91 155,-168.79 155,-168.79"/>
<polygon fill="black" stroke="black" points="151.5,-168.79 155,-178.79 158.5,-168.79 151.5,-168.79"/>
</g>
<!-- SharedModule -->
<g id="node3" class="node">
<title>SharedModule</title>
<polygon fill="#8dd3c7" stroke="black" points="122.42,-84.8 119.42,-88.8 98.42,-88.8 95.42,-84.8 23.58,-84.8 23.58,-48.8 122.42,-48.8 122.42,-84.8"/>
<text text-anchor="middle" x="73" y="-62.6" font-family="Times,serif" font-size="14.00">SharedModule</text>
</g>
<!-- SharedModule&#45;&gt;SearchModule -->
<g id="edge2" class="edge">
<title>SharedModule&#45;&gt;SearchModule</title>
<path fill="none" stroke="black" d="M114.2,-84.91C114.2,-84.91 114.2,-103.79 114.2,-103.79"/>
<polygon fill="black" stroke="black" points="110.7,-103.79 114.2,-113.79 117.7,-103.79 110.7,-103.79"/>
</g>
</g>
</svg>
