<?xml version="1.0" encoding="UTF-8" standalone="no"?>
<!DOCTYPE svg PUBLIC "-//W3C//DTD SVG 1.1//EN"
 "http://www.w3.org/Graphics/SVG/1.1/DTD/svg11.dtd">
<!-- Generated by graphviz version 2.47.3 (20210619.1520)
 -->
<!-- Title: dependencies Pages: 1 -->
<svg width="646pt" height="247pt"
 viewBox="0.00 0.00 646.00 246.80" xmlns="http://www.w3.org/2000/svg" xmlns:xlink="http://www.w3.org/1999/xlink">
<g id="graph0" class="graph" transform="scale(1 1) rotate(0) translate(4 242.8)">
<title>dependencies</title>
<polygon fill="white" stroke="transparent" points="-4,4 -4,-242.8 642,-242.8 642,4 -4,4"/>
<text text-anchor="middle" x="319" y="-8.2" font-family="sans-serif" font-size="14.00">dependencies</text>
<g id="clust1" class="cluster">
<title>cluster_LandingPageModule</title>
<polygon fill="none" stroke="black" stroke-dasharray="1,5" points="8,-32.8 8,-230.8 630,-230.8 630,-32.8 8,-32.8"/>
</g>
<g id="clust5" class="cluster">
<title>cluster_LandingPageModule_exports</title>
<polygon fill="none" stroke="black" points="224,-170.8 224,-222.8 398,-222.8 398,-170.8 224,-170.8"/>
</g>
<g id="clust4" class="cluster">
<title>cluster_LandingPageModule_imports</title>
<polygon fill="none" stroke="black" points="196,-40.8 196,-92.8 622,-92.8 622,-40.8 196,-40.8"/>
</g>
<g id="clust2" class="cluster">
<title>cluster_LandingPageModule_declarations</title>
<polygon fill="none" stroke="black" points="16,-40.8 16,-92.8 188,-92.8 188,-40.8 16,-40.8"/>
</g>
<!-- LandingPageComponent -->
<g id="node1" class="node">
<title>LandingPageComponent</title>
<polygon fill="#ffffb3" stroke="black" points="179.7,-84.8 24.3,-84.8 24.3,-48.8 179.7,-48.8 179.7,-84.8"/>
<text text-anchor="middle" x="102" y="-62.6" font-family="Times,serif" font-size="14.00">LandingPageComponent</text>
</g>
<!-- LandingPageModule -->
<g id="node2" class="node">
<title>LandingPageModule</title>
<polygon fill="#8dd3c7" stroke="black" points="377.92,-149.8 374.92,-153.8 353.92,-153.8 350.92,-149.8 244.08,-149.8 244.08,-113.8 377.92,-113.8 377.92,-149.8"/>
<text text-anchor="middle" x="311" y="-127.6" font-family="Times,serif" font-size="14.00">LandingPageModule</text>
</g>
<!-- LandingPageComponent&#45;&gt;LandingPageModule -->
<g id="edge1" class="edge">
<title>LandingPageComponent&#45;&gt;LandingPageModule</title>
<path fill="none" stroke="black" d="M102,-84.91C102,-104.14 102,-131.8 102,-131.8 102,-131.8 234.01,-131.8 234.01,-131.8"/>
<polygon fill="black" stroke="black" points="234.01,-135.3 244.01,-131.8 234.01,-128.3 234.01,-135.3"/>
</g>
<!-- LandingPageComponent  -->
<g id="node6" class="node">
<title>LandingPageComponent </title>
<polygon fill="#fb8072" stroke="black" points="390.2,-214.8 231.8,-214.8 231.8,-178.8 390.2,-178.8 390.2,-214.8"/>
<text text-anchor="middle" x="311" y="-192.6" font-family="Times,serif" font-size="14.00">LandingPageComponent </text>
</g>
<!-- LandingPageModule&#45;&gt;LandingPageComponent  -->
<g id="edge5" class="edge">
<title>LandingPageModule&#45;&gt;LandingPageComponent </title>
<path fill="none" stroke="black" stroke-dasharray="5,2" d="M311,-149.91C311,-149.91 311,-168.79 311,-168.79"/>
<polygon fill="black" stroke="black" points="307.5,-168.79 311,-178.79 314.5,-168.79 307.5,-168.79"/>
</g>
<!-- LandingPageRoutingModule -->
<g id="node3" class="node">
<title>LandingPageRoutingModule</title>
<polygon fill="#8dd3c7" stroke="black" points="614.04,-84.8 611.04,-88.8 590.04,-88.8 587.04,-84.8 435.96,-84.8 435.96,-48.8 614.04,-48.8 614.04,-84.8"/>
<text text-anchor="middle" x="525" y="-62.6" font-family="Times,serif" font-size="14.00">LandingPageRoutingModule</text>
</g>
<!-- LandingPageRoutingModule&#45;&gt;LandingPageModule -->
<g id="edge2" class="edge">
<title>LandingPageRoutingModule&#45;&gt;LandingPageModule</title>
<path fill="none" stroke="black" d="M525,-84.91C525,-104.14 525,-131.8 525,-131.8 525,-131.8 387.83,-131.8 387.83,-131.8"/>
<polygon fill="black" stroke="black" points="387.83,-128.3 377.83,-131.8 387.83,-135.3 387.83,-128.3"/>
</g>
<!-- SearchModule -->
<g id="node4" class="node">
<title>SearchModule</title>
<polygon fill="#8dd3c7" stroke="black" points="417.64,-84.8 414.64,-88.8 393.64,-88.8 390.64,-84.8 320.36,-84.8 320.36,-48.8 417.64,-48.8 417.64,-84.8"/>
<text text-anchor="middle" x="369" y="-62.6" font-family="Times,serif" font-size="14.00">SearchModule</text>
</g>
<!-- SearchModule&#45;&gt;LandingPageModule -->
<g id="edge3" class="edge">
<title>SearchModule&#45;&gt;LandingPageModule</title>
<path fill="none" stroke="black" d="M348.95,-84.91C348.95,-84.91 348.95,-103.79 348.95,-103.79"/>
<polygon fill="black" stroke="black" points="345.45,-103.79 348.95,-113.79 352.45,-103.79 345.45,-103.79"/>
</g>
<!-- SharedModule -->
<g id="node5" class="node">
<title>SharedModule</title>
<polygon fill="#8dd3c7" stroke="black" points="302.42,-84.8 299.42,-88.8 278.42,-88.8 275.42,-84.8 203.58,-84.8 203.58,-48.8 302.42,-48.8 302.42,-84.8"/>
<text text-anchor="middle" x="253" y="-62.6" font-family="Times,serif" font-size="14.00">SharedModule</text>
</g>
<!-- SharedModule&#45;&gt;LandingPageModule -->
<g id="edge4" class="edge">
<title>SharedModule&#45;&gt;LandingPageModule</title>
<path fill="none" stroke="black" d="M273.25,-84.91C273.25,-84.91 273.25,-103.79 273.25,-103.79"/>
<polygon fill="black" stroke="black" points="269.75,-103.79 273.25,-113.79 276.75,-103.79 269.75,-103.79"/>
</g>
</g>
</svg>
