<?xml version="1.0" encoding="UTF-8" standalone="no"?>
<!DOCTYPE svg PUBLIC "-//W3C//DTD SVG 1.1//EN"
 "http://www.w3.org/Graphics/SVG/1.1/DTD/svg11.dtd">
<!-- Generated by graphviz version 2.47.3 (20210619.1520)
 -->
<!-- Title: dependencies Pages: 1 -->
<svg width="687pt" height="247pt"
 viewBox="0.00 0.00 687.00 246.80" xmlns="http://www.w3.org/2000/svg" xmlns:xlink="http://www.w3.org/1999/xlink">
<g id="graph0" class="graph" transform="scale(1 1) rotate(0) translate(4 242.8)">
<title>dependencies</title>
<polygon fill="white" stroke="transparent" points="-4,4 -4,-242.8 683,-242.8 683,4 -4,4"/>
<text text-anchor="middle" x="339.5" y="-8.2" font-family="sans-serif" font-size="14.00">dependencies</text>
<g id="clust1" class="cluster">
<title>cluster_AppModule</title>
<polygon fill="none" stroke="black" stroke-dasharray="1,5" points="8,-32.8 8,-230.8 671,-230.8 671,-32.8 8,-32.8"/>
</g>
<g id="clust2" class="cluster">
<title>cluster_AppModule_declarations</title>
<polygon fill="none" stroke="black" points="541,-40.8 541,-92.8 663,-92.8 663,-40.8 541,-40.8"/>
</g>
<g id="clust6" class="cluster">
<title>cluster_AppModule_bootstrap</title>
<polygon fill="none" stroke="black" points="273,-170.8 273,-222.8 397,-222.8 397,-170.8 273,-170.8"/>
</g>
<g id="clust4" class="cluster">
<title>cluster_AppModule_imports</title>
<polygon fill="none" stroke="black" points="16,-40.8 16,-92.8 533,-92.8 533,-40.8 16,-40.8"/>
</g>
<!-- AppComponent -->
<g id="node1" class="node">
<title>AppComponent</title>
<polygon fill="#ffffb3" stroke="black" points="654.94,-84.8 549.06,-84.8 549.06,-48.8 654.94,-48.8 654.94,-84.8"/>
<text text-anchor="middle" x="602" y="-62.6" font-family="Times,serif" font-size="14.00">AppComponent</text>
</g>
<!-- AppModule -->
<g id="node2" class="node">
<title>AppModule</title>
<polygon fill="#8dd3c7" stroke="black" points="376.66,-149.8 373.66,-153.8 352.66,-153.8 349.66,-149.8 293.34,-149.8 293.34,-113.8 376.66,-113.8 376.66,-149.8"/>
<text text-anchor="middle" x="335" y="-127.6" font-family="Times,serif" font-size="14.00">AppModule</text>
</g>
<!-- AppComponent&#45;&gt;AppModule -->
<g id="edge1" class="edge">
<title>AppComponent&#45;&gt;AppModule</title>
<path fill="none" stroke="black" d="M602,-85.08C602,-106.12 602,-137.8 602,-137.8 602,-137.8 386.72,-137.8 386.72,-137.8"/>
<polygon fill="black" stroke="black" points="386.72,-134.3 376.72,-137.8 386.72,-141.3 386.72,-134.3"/>
</g>
<!-- AppComponent  -->
<g id="node7" class="node">
<title>AppComponent </title>
<polygon fill="#80b1d3" stroke="black" points="389.44,-214.8 280.56,-214.8 280.56,-178.8 389.44,-178.8 389.44,-214.8"/>
<text text-anchor="middle" x="335" y="-192.6" font-family="Times,serif" font-size="14.00">AppComponent </text>
</g>
<!-- AppModule&#45;&gt;AppComponent  -->
<g id="edge6" class="edge">
<title>AppModule&#45;&gt;AppComponent </title>
<path fill="none" stroke="black" stroke-dasharray="1,5" d="M335,-149.91C335,-149.91 335,-168.79 335,-168.79"/>
<polygon fill="black" stroke="black" points="331.5,-168.79 335,-178.79 338.5,-168.79 331.5,-168.79"/>
</g>
<!-- AppRoutingModule -->
<g id="node3" class="node">
<title>AppRoutingModule</title>
<polygon fill="#8dd3c7" stroke="black" points="525.27,-84.8 522.27,-88.8 501.27,-88.8 498.27,-84.8 396.73,-84.8 396.73,-48.8 525.27,-48.8 525.27,-84.8"/>
<text text-anchor="middle" x="461" y="-62.6" font-family="Times,serif" font-size="14.00">AppRoutingModule</text>
</g>
<!-- AppRoutingModule&#45;&gt;AppModule -->
<g id="edge2" class="edge">
<title>AppRoutingModule&#45;&gt;AppModule</title>
<path fill="none" stroke="black" d="M461,-84.82C461,-102.17 461,-125.8 461,-125.8 461,-125.8 386.96,-125.8 386.96,-125.8"/>
<polygon fill="black" stroke="black" points="386.96,-122.3 376.96,-125.8 386.96,-129.3 386.96,-122.3"/>
</g>
<!-- CoreModule -->
<g id="node4" class="node">
<title>CoreModule</title>
<polygon fill="#8dd3c7" stroke="black" points="378.26,-84.8 375.26,-88.8 354.26,-88.8 351.26,-84.8 291.74,-84.8 291.74,-48.8 378.26,-48.8 378.26,-84.8"/>
<text text-anchor="middle" x="335" y="-62.6" font-family="Times,serif" font-size="14.00">CoreModule</text>
</g>
<!-- CoreModule&#45;&gt;AppModule -->
<g id="edge3" class="edge">
<title>CoreModule&#45;&gt;AppModule</title>
<path fill="none" stroke="black" d="M335,-84.91C335,-84.91 335,-103.79 335,-103.79"/>
<polygon fill="black" stroke="black" points="331.5,-103.79 335,-113.79 338.5,-103.79 331.5,-103.79"/>
</g>
<!-- LandingPageModule -->
<g id="node5" class="node">
<title>LandingPageModule</title>
<polygon fill="#8dd3c7" stroke="black" points="273.92,-84.8 270.92,-88.8 249.92,-88.8 246.92,-84.8 140.08,-84.8 140.08,-48.8 273.92,-48.8 273.92,-84.8"/>
<text text-anchor="middle" x="207" y="-62.6" font-family="Times,serif" font-size="14.00">LandingPageModule</text>
</g>
<!-- LandingPageModule&#45;&gt;AppModule -->
<g id="edge4" class="edge">
<title>LandingPageModule&#45;&gt;AppModule</title>
<path fill="none" stroke="black" d="M207,-84.82C207,-102.17 207,-125.8 207,-125.8 207,-125.8 283.09,-125.8 283.09,-125.8"/>
<polygon fill="black" stroke="black" points="283.09,-129.3 293.09,-125.8 283.09,-122.3 283.09,-129.3"/>
</g>
<!-- SearchModule -->
<g id="node6" class="node">
<title>SearchModule</title>
<polygon fill="#8dd3c7" stroke="black" points="121.64,-84.8 118.64,-88.8 97.64,-88.8 94.64,-84.8 24.36,-84.8 24.36,-48.8 121.64,-48.8 121.64,-84.8"/>
<text text-anchor="middle" x="73" y="-62.6" font-family="Times,serif" font-size="14.00">SearchModule</text>
</g>
<!-- SearchModule&#45;&gt;AppModule -->
<g id="edge5" class="edge">
<title>SearchModule&#45;&gt;AppModule</title>
<path fill="none" stroke="black" d="M73,-85.08C73,-106.12 73,-137.8 73,-137.8 73,-137.8 283.2,-137.8 283.2,-137.8"/>
<polygon fill="black" stroke="black" points="283.2,-141.3 293.2,-137.8 283.2,-134.3 283.2,-141.3"/>
</g>
</g>
</svg>
